<?xml version="1.0" standalone="no"?><!DOCTYPE svg PUBLIC "-//W3C//DTD SVG 1.1//EN" "http://www.w3.org/Graphics/SVG/1.1/DTD/svg11.dtd"><svg t="1586943044718" class="icon" viewBox="0 0 1024 1024" version="1.1" xmlns="http://www.w3.org/2000/svg" p-id="2739" xmlns:xlink="http://www.w3.org/1999/xlink" width="200" height="200"><defs><style type="text/css"></style></defs><path d="M231.22064 483.033271c-0.560772 4.729721-1.38965 8.720615-1.438769 12.722766-0.121773 10.063193 4.061502 17.780969 13.33982 22.286586 4.460592 2.166339 9.323343 3.684926 13.387915 6.41306 2.363837 1.588171 4.111644 4.814656 4.935406 7.653307 0.38067 1.310855-1.76725 4.446265-3.378957 5.010107-3.012613 1.051959-5.852288-0.211824-6.551206-3.942799-0.401136-2.134617-0.650823-4.298909-1.00898-6.731308-7.230682 0-14.335497 0-21.397333 0-3.560082 13.114692 2.966565 24.496927 15.94925 26.40744 6.803963 1.001817 13.990642 0.731664 20.835538-0.200568 8.725732-1.189082 15.783475-5.762237 17.830087-14.988366 2.403746-10.840906 1.023306-21.176298-8.379854-28.453029-4.122901-3.188622-9.374508-4.912893-14.08581-7.355525-2.755764-1.428535-6.077416-2.425236-7.980765-4.626367-1.433652-1.656733-1.619894-5.037736-1.134847-7.398504 0.197498-0.959861 4.010337-2.191922 5.511527-1.602498 1.680269 0.661056 3.643993 3.235694 3.657296 4.992711 0.036839 4.567016 2.065032 5.723352 6.118348 5.478781 3.669576-0.221034 7.364735-0.156566 11.04352-0.038886 3.353374 0.106424 4.345981-1.427512 4.463662-4.663206 0.463558-12.867052-4.552689-19.101033-17.368576-21.013593-2.861164-0.426719-5.748934-0.675382-10.262738-1.196245 8.610098-3.461845 15.813151-6.462179 23.092951-9.267061 60.665685-23.372314 123.095549-40.724517 186.9079-52.735062 38.965453-7.334036 78.193897-13.646811 117.538997-18.506493 55.037501-6.79987 110.401436-9.293667 165.845189-5.746888 32.31601 2.068102 64.584947 5.489014 95.249341 16.630772 11.772115 4.27742 23.447015 10.041704 33.591049 17.323551 17.932418 12.876262 21.107737 31.29168 9.219989 49.938366-5.559623 8.718569-12.727882 16.720823-20.364817 23.744797-20.764929 19.097964-45.37135 32.416294-70.685899 45.044916 0-10.67206 0-20.98187 0-31.781844-7.842619 0-15.187911-0.143263-22.515806 0.143263-1.180895 0.047072-3.344165 2.12029-3.236718 3.049452 0.355087 3.100618-2.438539 7.144724 2.161223 9.188266 0.779759 0.346901 1.718131 0.340761 3.013637 0.575098 0 3.683902-0.00921 7.145747 0.002047 10.607592 0.013303 3.474125-1.50733 5.808286-5.134951 5.79396-3.613294-0.014326-5.164626-2.462075-5.249561-5.822612-0.10847-4.231371-0.053212-8.466835-0.060375-12.7023-0.014326-8.28571-0.11154-16.571421 0.013303-24.854061 0.048095-3.176342 0.475837-6.492878 4.740978-6.852058 3.191692-0.26913 5.456269 0.8913 5.655813 4.445242 0.11154 1.99954 0.019443 4.01136 0.019443 6.828522 6.414083 0 12.440333 0.23843 18.411325-0.225127 1.043772-0.080841 2.688225-3.13234 2.64627-4.774747-0.341784-13.281491-8.656147-21.748327-22.094204-22.924105-18.663058-1.635243-29.487591 6.641257-30.933523 25.320689-0.98749 12.769838-0.597611 25.722848 0.187265 38.532595 0.667196 10.903328 6.402827 16.211217 17.293875 18.36323 0.86367 0.170892 1.699712 0.485047 4.02978 1.163499-5.055133 2.088568-8.831132 3.694135-12.639878 5.217838-67.787896 27.095102-137.910976 46.110177-209.596645 59.239196-35.394115 6.482645-71.02666 12.012591-106.755396 16.242939-52.67878 6.237051-105.636922 8.91402-158.691255 5.770424-34.533514-2.046612-68.99949-5.438872-101.780081-17.454534-10.755971-3.941775-21.459754-9.070586-30.792307-15.640212-19.591197-13.789051-22.582321-32.744775-9.765411-52.989865 8.103562-12.799514 19.25146-22.684652 31.18935-31.726585 19.296485-14.613836 40.402175-26.195615 62.132082-36.700877C228.919225 483.775168 229.975277 483.487619 231.22064 483.033271zM448.523805 502.087233c0.312108 0.113587 0.62524 0.229221 0.937348 0.341784 0 10.853186-0.192382 21.710464 0.041956 32.55751 0.423649 19.589151-3.626597 15.350616 16.866133 15.94925 3.500731 0.103354 4.367471-1.475608 4.290723-4.659113-0.539282-22.621207-1.014096-45.245484-1.394766-67.86976-0.060375-3.546779-1.458211-4.846378-4.977361-4.779863-8.276501 0.156566-16.562211 0.188288-24.836665-0.017396-3.904936-0.098237-5.338588 1.314948-5.973038 5.241374-1.746784 10.8143-4.062526 21.536502-6.463202 33.901111-2.245134-13.95585-4.218068-26.215058-6.187933-38.464033-11.766998 0-23.003923 0-35.725666 0 0 21.568225 0.024559 42.520419-0.00921 63.47159-0.021489 13.20986-0.055259 12.970406 13.235442 13.266142 5.284353 0.11768 7.076162-1.465374 6.969739-6.7968-0.285502-14.579043-0.098237-29.16832-0.098237-43.75248 3.862981 12.265348 6.439666 24.632004 9.175987 36.962843 2.998287 13.510712 3.072989 13.175067 16.923438 13.623275 5.679349 0.183172 7.535627-1.927909 8.509814-7.090489C442.451506 529.963117 445.584869 516.044106 448.523805 502.087233zM696.980503 514.294252c-0.339738 0.094144-0.679475 0.187265-1.019213 0.280386-0.735757-1.629103-1.500167-3.246951-2.204202-4.89038-4.628414-10.803044-9.194406-21.63167-13.921058-32.391734-0.673335-1.532913-2.048659-3.862981-3.180436-3.910053-7.983835-0.340761-15.989159-0.181125-23.90034-0.181125 0 26.03598 0 51.166333 0 76.55763 6.67298 0 12.998035 0 19.962657 0 0-13.973246 0-27.610848 0-41.250496 1.664919 1.25662 2.413979 2.647293 3.071965 4.079922 5.139044 11.17962 10.211573 22.387893 15.446807 33.521464 0.704035 1.49812 2.155083 3.687996 3.346211 3.742231 7.438413 0.344854 14.901385 0.173962 22.396079 0.173962 0-25.990954 0-51.118238 0-76.420507-6.791683 0-13.246699 0-19.99745 0C696.980503 487.500003 696.980503 500.897128 696.980503 514.294252zM592.532663 473.105155c-5.732561 0-10.857279 0.323365-15.923668-0.089028-5.176906-0.422625-7.031137 1.115404-6.904247 6.604418 0.35918 15.639189 0.090051 31.29168 0.1361 46.938032 0.046049 16.293081 7.871271 25.128307 24.022113 26.454512 17.116843 1.404999 33.494858-4.782933 32.615838-29.229718-0.529049-14.70798-0.085958-29.449729-0.109494-44.176129-0.00307-1.964748-0.177032-3.930519-0.276293-5.980201-7.546883 0-14.56574 0-22.059412 0 0 2.699482 0.002047 4.880147 0 7.060813-0.01535 16.384156-0.044002 32.767288-0.033769 49.15042 0.002047 3.382027-0.343831 6.181793-4.749164 6.562463-4.544503 0.390903-6.503111-1.51347-6.522554-5.898337-0.049119-11.779278-0.14224-23.557532-0.190335-35.33681C592.509127 488.040309 592.532663 480.915028 592.532663 473.105155zM525.726118 497.349325c5.993504 0 11.507078 0.190335 16.989953-0.143263 1.260713-0.075725 3.357468-1.853208 3.470031-3.003404 1.006933-10.32209-1.832741-20.063965-14.081717-21.802562-7.875365-1.116427-16.165168-0.86981-24.048719 0.277316-4.047176 0.587378-8.723685 3.673669-11.192923 7.04137-7.93574 10.82044-3.749394 29.121248 7.756661 35.932374 4.402263 2.607384 9.405207 4.184299 13.881149 6.684236 2.457981 1.372254 5.193279 3.299139 6.351662 5.681396 1.428535 2.933819 1.381463 6.90834-2.928702 8.037047-3.341095 0.87595-7.060813-0.343831-6.831592-4.266164 0.405229-6.91755-3.281743-7.27366-8.43716-6.882757-3.844561 0.292666-7.753591-0.186242-11.577686 0.215918-1.298576 0.137123-3.242857 1.746784-3.497661 2.971681-2.025123 9.767458 4.13211 20.145829 13.904685 22.812565 9.766434 2.665713 19.687388 2.382257 29.320793-0.952698 7.679913-2.660596 11.919471-8.399297 13.06762-16.322757 2.076288-14.34573-3.758604-24.671912-17.115819-30.546713-3.025916-1.331321-6.17463-2.390443-9.1678-3.78521-1.811252-0.842181-4.113691-1.713015-4.968152-3.252067-1.133823-2.040473-1.769296-4.919033-1.232061-7.095605 0.275269-1.115404 3.853771-2.428306 5.415336-1.947352 1.781576 0.548492 3.305279 2.815115 4.316306 4.675486C525.835611 492.995157 525.512247 494.873947 525.726118 497.349325zM363.117646 550.648229c0.159636-0.893346 0.411369-1.450025 0.326435-1.949398-4.042059-23.868617-8.05649-47.742351-12.341073-71.567989-0.209778-1.165546-2.775206-2.664689-4.28356-2.710738-8.449439-0.264013-16.921391 0.107447-25.365714-0.232291-4.137227-0.165776-5.318122 1.588171-5.912663 5.230118-2.365884 14.478759-4.988618 28.916587-7.457856 43.379996-1.562589 9.146311-3.0208 18.311041-4.641717 28.175713 6.903224 0 13.121855 0.182149 19.309788-0.168846 1.098008-0.063445 2.724041-2.215458 2.988054-3.614317 1.054005-5.582135 1.636267-11.250228 2.448772-16.879436 1.555425-10.770298 3.14769-21.535479 4.723581-32.301683 0.338714 0.001023 0.677429 0.00307 1.016143 0.005117 2.732228 17.58347 5.463432 35.166941 8.176217 52.634778C349.685729 550.648229 356.407827 550.648229 363.117646 550.648229z" p-id="2740"></path></svg>