<?xml version="1.0" standalone="no"?><!DOCTYPE svg PUBLIC "-//W3C//DTD SVG 1.1//EN" "http://www.w3.org/Graphics/SVG/1.1/DTD/svg11.dtd"><svg t="1587053527269" class="icon" viewBox="0 0 1024 1024" version="1.1" xmlns="http://www.w3.org/2000/svg" p-id="1553" xmlns:xlink="http://www.w3.org/1999/xlink" width="200" height="200"><defs><style type="text/css"></style></defs><path d="M742.4 448c-43.2-19.2-84.8-19.2-131.2-12.8-3.2 0-12.8 0-12.8 6.4s9.6 3.2 12.8 0c32-3.2 65.6-3.2 94.4 16 25.6 16 25.6 43.2 0 62.4-32 22.4-100.8 22.4-134.4 0-6.4-3.2-12.8-12.8-12.8-22.4v-56c0-9.6-3.2-16-16-16h-9.6c-12.8 0-16 3.2-16 16v131.2c0 25.6 0 25.6 25.6 25.6 3.2 0 9.6 0 12.8-3.2 3.2-3.2 3.2-6.4 3.2-12.8v-43.2c0-12.8 0-12.8 12.8-9.6 52.8 22.4 115.2 22.4 166.4-3.2 16-6.4 32-19.2 32-43.2 4.8-19.2-11.2-28.8-27.2-35.2z m-286.4-8c-36.8-12.8-75.2-16-115.2-6.4-6.4 0-16 0-12.8 6.4 0 6.4 9.6 3.2 16 0 32-3.2 62.4-3.2 88 16 28.8 19.2 28.8 46.4 0 65.6-43.2 25.6-91.2 25.6-134.4 0-9.6-3.2-12.8-12.8-12.8-22.4v-46.4c0-22.4 0-22.4-22.4-22.4-3.2 0-9.6 0-12.8 3.2V584c0 3.2 0 9.6 3.2 9.6 3.2 3.2 6.4 3.2 9.6 3.2h9.6c3.2 0 9.6 0 12.8-3.2 3.2-3.2 3.2-6.4 3.2-12.8v-46.4c0-9.6 3.2-12.8 12.8-9.6 46.4 19.2 97.6 22.4 147.2 9.6 16-3.2 28.8-12.8 43.2-22.4 16-12.8 19.2-32 6.4-49.6l-6.4-6.4c-8-4.8-20.8-11.2-35.2-16zM208 448c-40-19.2-81.6-22.4-124.8-16-19.2 3.2-43.2 9.6-59.2 19.2-32 22.4-32 52.8 0 72 28.8 19.2 62.4 22.4 91.2 22.4 32 0 62.4-6.4 91.2-19.2 16-9.6 32-19.2 32-43.2-1.6-16-14.4-25.6-30.4-35.2z m-40 72c-32 22.4-97.6 22.4-134.4 0-28.8-19.2-28.8-49.6 3.2-65.6 19.2-9.6 43.2-16 65.6-16s46.4 3.2 65.6 16c27.2 19.2 27.2 44.8 0 65.6z m825.6-75.2c-25.6-12.8-52.8-19.2-81.6-16-28.8-3.2-62.4 3.2-88 16-16 9.6-36.8 19.2-36.8 43.2 0 22.4 16 32 32 43.2 52.8 25.6 115.2 25.6 171.2 0 16-6.4 32-19.2 32-43.2 4.8-24-11.2-33.6-28.8-43.2z m-41.6 78.4c-19.2 9.6-43.2 16-62.4 16-22.4 0-43.2-6.4-62.4-16-32-19.2-32-49.6 0-68.8 40-22.4 84.8-22.4 124.8 0 35.2 16 32 48 0 68.8z" fill="#2c2c2c" p-id="1554"></path></svg>