<?xml version="1.0" standalone="no"?><!DOCTYPE svg PUBLIC "-//W3C//DTD SVG 1.1//EN" "http://www.w3.org/Graphics/SVG/1.1/DTD/svg11.dtd"><svg t="1587053961426" class="icon" viewBox="0 0 1024 1024" version="1.1" xmlns="http://www.w3.org/2000/svg" p-id="14983" xmlns:xlink="http://www.w3.org/1999/xlink" width="200" height="200"><defs><style type="text/css"></style></defs><path d="M716.8 307.2m-68.27008 0a68.27008 68.27008 0 1 0 136.54016 0 68.27008 68.27008 0 1 0-136.54016 0Z" p-id="14984"></path><path d="M853.32992 102.4H170.67008C133.13024 102.4 102.4 133.09952 102.4 170.67008v682.67008C102.4 890.86976 133.13024 921.6 170.67008 921.6h682.65984C890.86976 921.6 921.6 890.86976 921.6 853.32992V170.67008C921.6 133.09952 890.86976 102.4 853.32992 102.4zM170.67008 853.32992V540.2624L307.2 403.73248l190.6688 190.70976-258.8672 258.88768h-68.33152z m682.65984 0H335.53408L648.52992 540.2624l204.8 204.84096v108.22656z m0-204.76928l-204.8-204.82048-102.4 102.42048L307.2 307.2 170.67008 443.72992V170.67008h682.65984v477.89056z" p-id="14985"></path></svg>