<?xml version="1.0" standalone="no"?><!DOCTYPE svg PUBLIC "-//W3C//DTD SVG 1.1//EN" "http://www.w3.org/Graphics/SVG/1.1/DTD/svg11.dtd"><svg t="1587053706305" class="icon" viewBox="0 0 1024 1024" version="1.1" xmlns="http://www.w3.org/2000/svg" p-id="3436" xmlns:xlink="http://www.w3.org/1999/xlink" width="200" height="200"><defs><style type="text/css"></style></defs><path d="M383.36 110.762667v748.714666l167.04 53.802667V285.354667c0-29.44 12.970667-49.109333 33.877333-42.282667 27.136 7.722667 32.426667 34.730667 32.426667 64.213333v250.709334c104.149333 50.901333 186.112-0.085333 186.112-134.528 0-138.112-48.042667-199.466667-189.354667-248.618667-55.765333-19.114667-159.061333-50.602667-230.016-64.085333h-0.085333z m198.656 692.992l268.629333-97.066667c30.506667-11.008 35.242667-26.666667 10.496-34.901333-25.002667-8.192-69.845333-5.930667-100.565333 5.248l-179.413333 63.957333v-101.76l10.24-3.626667s51.242667-17.92 124.288-26.24c72.362667-7.68 161.493333 1.237333 231.978666 28.202667 78.848 25.642667 87.082667 62.805333 67.242667 88.405333s-69.205333 44.202667-69.205333 44.202667l-364.544 132.565333v-98.005333l0.853333-0.981333zM77.141333 793.6c-81.066667-23.253333-94.464-71.168-57.685333-99.029333 34.176-24.96 92.117333-44.842667 92.117333-44.842667l239.616-85.888v98.688L179.456 725.333333c-30.08 11.562667-35.2 26.965333-10.197333 35.242667 25.002667 8.32 69.845333 6.4 99.968-5.12L351.914667 725.333333v88.490667c-5.162667 1.237333-10.922667 1.877333-16.682667 3.114667-82.688 14.122667-170.453333 8.362667-257.578667-20.437334l-0.512-2.901333z" fill="" p-id="3437"></path></svg>