<svg data-v-4462aea7="" version="1.0" xmlns="http://www.w3.org/2000/svg" xmlns:xlink="http://www.w3.org/1999/xlink" width="100%" height="100%" viewBox="0 0 110 50" preserveAspectRatio="xMidYMid meet" color-interpolation-filters="sRGB" class="el-tooltip" style="margin:auto">
    <rect data-v-4462aea7="" x="0" y="0" width="100%" height="100%" fill="rgba(24, 144, 255,0)" fill-opacity="1"/>
    <g data-v-4462aea7="" fill="#fff" class="pmspacesvg" transform="translate(4,8)">
        <g fill-rule="evenodd" class="tp-name">
            <g transform="translate(-2,-2)" fill-opacity="0.5">
                <path d="M6.86 0.18Q6.15 0.35 5.45 0.18L5.45 0.18L3.87-0.18Q3.16-0.35 2.46-1.05L2.46-1.05Q1.23-1.58 0.88-2.46L0.88-2.46Q0.70-2.99 0.88-3.69L0.88-3.69L9.32-28.48Q9.67-29.36 10.37-29.36L10.37-29.36Q10.90-29.53 12.13-29.53L12.13-29.53Q13.54-29.53 14.41-29.36L14.41-29.36Q15.12-29.36 15.47-28.48L15.47-28.48L15.82-28.48Q16.52-28.48 16.88-27.60L16.88-27.60L24.96-3.52L25.14-2.64Q25.14-1.58 23.73-0.70L23.73-0.70Q22.68 0 21.27 0L21.27 0L20.39 0Q19.69 0 19.34-0.88L19.34-0.88L18.98-0.88Q18.28-0.88 17.93-1.76L17.93-1.76L15.12-10.72L11.07-10.37L8.09-0.70Q7.91-0.18 7.03 0.18L7.03 0.18L6.86 0.18ZM4.75-1.58L5.63-1.76L8.96-12.30L14.41-12.66L14.41-13.54Q14.41-15.29 13.54-16.35L13.54-16.35L10.37-16.00L12.30-23.55L18.98-1.93L19.86-1.93Q20.92-1.93 21.80-2.46L21.80-2.46Q22.68-2.99 22.68-3.52L22.68-3.52L14.41-28.30Q13.54-28.48 12.13-28.48L12.13-28.48Q10.90-28.48 10.37-28.30L10.37-28.30L1.76-2.99Q1.93-2.46 2.81-2.11L2.81-2.11L4.75-1.58ZM32.87 1.23Q31.11 1.23 30.59 1.05L30.59 1.05Q29.71 0.70 29.18 0.18L29.18 0.18Q27.25-0.35 26.89-2.99L26.89-2.99Q26.54-5.45 26.54-8.61L26.54-8.61L26.72-27.25Q26.72-28.13 26.89-28.30L26.89-28.30Q27.25-28.83 27.60-29.00L27.60-29.00Q28.65-29.36 29.18-29.36L29.18-29.36Q31.82-29.36 32.52-28.30L32.52-28.30Q33.57-27.95 33.93-27.42L33.93-27.42Q34.10-27.07 34.10-26.19L34.10-26.19L34.10-18.46L36.74-18.81Q39.90-18.81 41.48-18.46L41.48-18.46Q42.01-18.46 42.36-17.75L42.36-17.75L42.89-17.58Q43.77-17.58 43.77-16.52L43.77-16.52L43.95-14.06L43.95-8.44Q43.95-5.80 43.77-4.92L43.77-4.92L43.42-0.88Q43.42 0.53 40.43 0.53L40.43 0.53Q39.02 0.53 38.32 0.18L38.32 0.18L37.62 0.53Q35.68 1.23 32.87 1.23L32.87 1.23ZM36.56-5.45L36.56-6.50L36.74-11.78L35.51-11.60Q34.45-11.60 33.93-12.13L33.93-12.13L33.93-7.03L33.93-5.80Q34.28-5.80 34.45-5.98L34.45-5.98L34.98-5.98Q35.86-6.33 36.39-5.63L36.39-5.63L36.56-5.45ZM31.46-0.70Q34.10-0.70 36.04-1.41L36.04-1.41Q36.21-1.93 36.21-2.81L36.21-2.81Q36.21-4.39 35.51-5.10L35.51-5.10L34.10-4.75Q33.93-4.57 32.70-4.57L32.70-4.57Q31.99-4.57 31.99-4.75L31.99-4.75Q31.46-5.63 31.46-7.91L31.46-7.91L31.46-12.66Q31.46-16.52 31.64-19.16L31.64-19.16L31.64-27.60Q31.46-28.30 29.18-28.30L29.18-28.30Q28.13-28.30 27.77-27.95L27.77-27.95L27.60-8.61Q27.60-5.63 27.95-3.16L27.95-3.16Q28.30-1.05 29.53-0.88L29.53-0.88Q29.71-0.70 31.46-0.70L31.46-0.70ZM39.02-1.41Q40.96-1.41 40.96-1.76L40.96-1.76L41.31-5.98Q41.48-6.68 41.48-9.32L41.48-9.32L41.48-14.94Q41.48-17.23 41.13-17.58L41.13-17.58Q39.55-17.75 36.74-17.75L36.74-17.75L32.87-17.23L32.70-15.64Q32.70-14.59 33.22-13.71L33.22-13.71Q33.75-13.36 35.16-13.71L35.16-13.71Q35.68-13.89 37.62-13.89L37.62-13.89Q37.79-13.54 37.79-11.43L37.79-11.43Q37.79-8.61 37.62-6.50L37.62-6.50L37.27-1.93Q37.27-1.41 39.02-1.41L39.02-1.41ZM51.68 1.05Q49.92 1.05 49.39 0.88L49.39 0.88Q48.52 0.53 47.99 0L47.99 0Q46.05-0.53 45.70-3.16L45.70-3.16Q45.35-6.33 45.35-10.55L45.35-10.55L45.53-16.17Q45.53-17.05 45.70-17.23L45.70-17.23Q46.05-17.75 46.41-17.93L46.41-17.93Q47.46-18.28 47.99-18.28L47.99-18.28Q50.27-18.28 50.98-17.58L50.98-17.58Q51.33-17.93 51.86-17.93L51.86-17.93L55.55-18.46Q58.71-18.46 60.29-18.11L60.29-18.11Q60.82-18.11 61.17-17.40L61.17-17.40L61.70-17.23Q62.58-17.23 62.58-16.17L62.58-16.17L62.75-13.71L62.75-9.14Q62.75-6.33 62.58-5.10L62.58-5.10L62.23-0.88Q62.23 0.53 59.24 0.53L59.24 0.53Q57.83 0.53 57.13 0.18L57.13 0.18Q56.78 0.53 56.25 0.53L56.25 0.53Q54.14 1.05 51.68 1.05L51.68 1.05ZM50.27-0.88Q52.38-0.88 54.84-1.41L54.84-1.41Q55.02-1.93 55.02-2.81L55.02-2.81Q55.02-4.39 54.32-5.10L54.32-5.10Q53.96-4.92 52.91-4.92L52.91-4.92Q52.73-4.75 51.50-4.75L51.50-4.75Q50.80-4.75 50.80-4.92L50.80-4.92Q50.27-5.80 50.27-9.84L50.27-9.84L50.27-11.60Q50.27-12.83 50.45-13.54L50.45-13.54L50.45-16.52Q50.27-17.23 47.99-17.23L47.99-17.23Q46.93-17.23 46.58-16.88L46.58-16.88L46.41-10.55Q46.41-5.80 46.76-3.34L46.76-3.34Q47.11-1.23 48.34-1.05L48.34-1.05Q48.52-0.88 50.27-0.88L50.27-0.88ZM55.20-5.63L55.37-8.26L55.55-11.43L54.32-11.25Q53.26-11.25 52.73-11.78L52.73-11.78L52.73-10.72L52.73-8.96L52.91-5.98L52.91-5.98L53.26-5.98Q53.44-5.98 53.88-6.15Q54.32-6.33 54.67-6.15L54.67-6.15L55.20-5.63ZM57.83-1.41Q59.77-1.41 59.77-1.76L59.77-1.76L60.12-5.98Q60.29-7.21 60.29-10.02L60.29-10.02L60.29-14.59Q60.29-16.88 59.94-17.23L59.94-17.23Q58.36-17.40 55.55-17.40L55.55-17.40L51.86-16.88L51.68-15.29Q51.68-14.24 52.21-13.36L52.21-13.36Q52.73-13.18 53.96-13.36L53.96-13.36Q54.49-13.54 56.43-13.54L56.43-13.54Q56.60-13.18 56.60-11.60L56.60-11.60Q56.60-9.67 56.43-8.26L56.43-8.26L56.07-1.93Q56.07-1.41 57.83-1.41L57.83-1.41ZM70.49 1.05Q68.73 1.05 68.20 0.88L68.20 0.88Q67.50 0.70 66.80 0L66.80 0Q64.86-0.53 64.51-3.16L64.51-3.16Q64.16-5.63 64.16-8.26L64.16-8.26L63.98-16.17Q63.98-16.88 64.16-17.23L64.16-17.23Q64.51-17.75 64.86-17.93L64.86-17.93Q65.92-18.28 66.80-18.28L66.80-18.28Q69.08-18.28 69.79-17.58L69.79-17.58L70.49-17.93Q73.13-18.63 76.64-18.63L76.64-18.63Q78.40-18.63 79.45-18.46L79.45-18.46Q80.51-18.98 80.86-17.58L80.86-17.58Q81.04-17.75 81.39-17.75L81.39-17.75Q82.09-17.75 82.35-16.61Q82.62-15.47 82.44-13.89L82.44-13.89L82.44-8.44L82.27-6.50L82.44-6.50Q82.97-6.33 83.14-5.80L83.14-5.80L83.85-5.63Q84.38-5.45 84.55-4.92L84.55-4.92L85.08-2.99L85.25-1.58Q85.25 0.18 83.85 0.18L83.85 0.18L81.39 0.35Q80.33 0.35 80.33-0.18L80.33-0.18L80.33-0.53L80.16-0.53L80.16-0.35Q80.16 0.18 79.63 0.18L79.63 0.18L79.10 0.18Q78.05 0.18 76.99-0.18L76.99-0.18Q76.64 0.18 76.11 0.18L76.11 0.18L73.30 0.70Q71.54 1.05 70.49 1.05L70.49 1.05ZM69.08-0.88Q69.96-0.88 71.72-1.23L71.72-1.23L74.71-1.76Q74.88-2.29 74.88-3.34L74.88-3.34Q74.88-4.92 74.18-5.63L74.18-5.63L72.42-5.10L70.31-4.75Q69.61-4.75 69.61-4.92L69.61-4.92Q69.08-5.80 69.08-8.09L69.08-8.09L69.08-11.07Q69.08-12.66 69.26-13.36L69.26-13.36L69.26-16.52Q69.08-17.23 66.80-17.23L66.80-17.23Q65.39-17.23 65.04-16.88L65.04-16.88L65.21-8.26Q65.21-5.80 65.57-3.34L65.57-3.34Q65.92-1.23 67.15-1.05L67.15-1.05Q67.32-0.88 69.08-0.88L69.08-0.88ZM71.54-5.98L71.72-5.98L72.25-6.15L73.65-6.50Q74.36-6.86 74.88-6.33L74.88-6.33L74.88-6.86L75.06-11.60Q74.53-11.43 72.95-11.43L72.95-11.43Q72.07-11.43 71.72-11.95L71.72-11.95L71.54-11.78L71.54-10.20L71.54-7.21L71.54-5.98ZM78.93-1.58L82.44-1.76Q82.97-1.76 82.62-3.69L82.62-3.69Q82.27-5.45 82.09-5.63L82.09-5.63L79.98-5.45L79.80-6.33Q79.98-6.86 79.98-9.32L79.98-9.32L79.98-14.77L79.98-16.00Q79.98-17.40 79.80-17.58L79.80-17.58Q74.36-17.93 70.66-16.88L70.66-16.88L70.66-15.82Q70.66-14.41 71.19-13.36L71.19-13.36Q73.30-13.36 73.83-13.54L73.83-13.54Q74.36-13.71 75.94-13.71L75.94-13.71Q76.11-13.36 76.11-11.43L76.11-11.43Q76.11-8.79 75.94-6.86L75.94-6.86L75.94-2.29Q75.94-1.76 77.70-1.76L77.70-1.76L78.75-1.76Q78.75-1.58 78.93-1.58L78.93-1.58ZM95.27 0.53L92.99 0Q92.29 0.70 91.93-0.70L91.93-0.70L91.58-0.88L91.23-0.70Q90.18-0.70 90.18-4.39L90.18-4.39Q89.82-7.56 90.18-12.66L90.18-12.66L89.65-12.66Q88.77-12.66 88.24-13.54L88.24-13.54Q87.19-13.54 87.01-14.41L87.01-14.41Q86.66-15.82 86.66-16.17L86.66-16.17Q86.66-16.88 86.84-17.23L86.84-17.23L87.01-18.28Q87.36-19.16 88.24-19.16L88.24-19.16L90.18-19.34L90.70-27.42Q90.70-28.83 93.69-28.83L93.69-28.83Q95.98-28.83 96.33-27.77L96.33-27.77Q97.91-27.60 97.91-26.37L97.91-26.37L97.56-19.51L99.14-19.51Q99.84-19.51 100.37-18.81L100.37-18.81L100.37-18.63L100.55-18.63Q101.25-18.63 101.78-17.93L101.78-17.93Q102.48-16.52 102.13-14.06L102.13-14.06Q102.13-13.01 101.07-13.01L101.07-13.01L97.56-12.83L97.38-6.68L97.38-6.33L100.02-6.33Q100.72-6.33 101.25-5.63L101.25-5.63L101.25-5.45L101.43-5.45Q102.13-5.45 102.66-4.75L102.66-4.75Q103.18-3.69 102.83-0.88L102.83-0.88Q102.83-0.18 101.95 0.18L101.95 0.18Q99.32 0.70 95.27 0.53L95.27 0.53ZM91.58-1.58Q93.34-1.41 96.33-1.41L96.33-1.41Q99.32-1.41 100.37-1.76L100.37-1.76L100.55-3.52Q100.55-4.57 100.20-5.27L100.20-5.27L97.38-5.27L96.86-5.27Q95.80-5.27 95.10-5.45L95.10-5.45L94.92-8.26L95.10-14.77L99.67-14.94L99.84-16.35Q99.84-17.40 99.32-18.46L99.32-18.46L95.10-18.28L95.45-27.25Q95.45-27.77 93.69-27.77L93.69-27.77Q91.76-27.77 91.76-27.42L91.76-27.42L91.23-18.28L88.07-18.11L87.89-17.05Q87.71-16.70 87.71-16.17L87.71-16.17Q87.71-15.64 88.07-14.59L88.07-14.59L91.23-14.77L91.05-8.96L91.23-4.39Q91.23-1.93 91.58-1.58L91.58-1.58Z" transform="translate(-0.791015625, 29.53125)"/>
            </g>
            <g fill="#333" transform="translate(2,2)">
                <path d="M6.86 0.18Q6.15 0.35 5.45 0.18L5.45 0.18L3.87-0.18Q3.16-0.35 2.46-1.05L2.46-1.05Q1.23-1.58 0.88-2.46L0.88-2.46Q0.70-2.99 0.88-3.69L0.88-3.69L9.32-28.48Q9.67-29.36 10.37-29.36L10.37-29.36Q10.90-29.53 12.13-29.53L12.13-29.53Q13.54-29.53 14.41-29.36L14.41-29.36Q15.12-29.36 15.47-28.48L15.47-28.48L15.82-28.48Q16.52-28.48 16.88-27.60L16.88-27.60L24.96-3.52L25.14-2.64Q25.14-1.58 23.73-0.70L23.73-0.70Q22.68 0 21.27 0L21.27 0L20.39 0Q19.69 0 19.34-0.88L19.34-0.88L18.98-0.88Q18.28-0.88 17.93-1.76L17.93-1.76L15.12-10.72L11.07-10.37L8.09-0.70Q7.91-0.18 7.03 0.18L7.03 0.18L6.86 0.18ZM4.75-1.58L5.63-1.76L8.96-12.30L14.41-12.66L14.41-13.54Q14.41-15.29 13.54-16.35L13.54-16.35L10.37-16.00L12.30-23.55L18.98-1.93L19.86-1.93Q20.92-1.93 21.80-2.46L21.80-2.46Q22.68-2.99 22.68-3.52L22.68-3.52L14.41-28.30Q13.54-28.48 12.13-28.48L12.13-28.48Q10.90-28.48 10.37-28.30L10.37-28.30L1.76-2.99Q1.93-2.46 2.81-2.11L2.81-2.11L4.75-1.58ZM32.87 1.23Q31.11 1.23 30.59 1.05L30.59 1.05Q29.71 0.70 29.18 0.18L29.18 0.18Q27.25-0.35 26.89-2.99L26.89-2.99Q26.54-5.45 26.54-8.61L26.54-8.61L26.72-27.25Q26.72-28.13 26.89-28.30L26.89-28.30Q27.25-28.83 27.60-29.00L27.60-29.00Q28.65-29.36 29.18-29.36L29.18-29.36Q31.82-29.36 32.52-28.30L32.52-28.30Q33.57-27.95 33.93-27.42L33.93-27.42Q34.10-27.07 34.10-26.19L34.10-26.19L34.10-18.46L36.74-18.81Q39.90-18.81 41.48-18.46L41.48-18.46Q42.01-18.46 42.36-17.75L42.36-17.75L42.89-17.58Q43.77-17.58 43.77-16.52L43.77-16.52L43.95-14.06L43.95-8.44Q43.95-5.80 43.77-4.92L43.77-4.92L43.42-0.88Q43.42 0.53 40.43 0.53L40.43 0.53Q39.02 0.53 38.32 0.18L38.32 0.18L37.62 0.53Q35.68 1.23 32.87 1.23L32.87 1.23ZM36.56-5.45L36.56-6.50L36.74-11.78L35.51-11.60Q34.45-11.60 33.93-12.13L33.93-12.13L33.93-7.03L33.93-5.80Q34.28-5.80 34.45-5.98L34.45-5.98L34.98-5.98Q35.86-6.33 36.39-5.63L36.39-5.63L36.56-5.45ZM31.46-0.70Q34.10-0.70 36.04-1.41L36.04-1.41Q36.21-1.93 36.21-2.81L36.21-2.81Q36.21-4.39 35.51-5.10L35.51-5.10L34.10-4.75Q33.93-4.57 32.70-4.57L32.70-4.57Q31.99-4.57 31.99-4.75L31.99-4.75Q31.46-5.63 31.46-7.91L31.46-7.91L31.46-12.66Q31.46-16.52 31.64-19.16L31.64-19.16L31.64-27.60Q31.46-28.30 29.18-28.30L29.18-28.30Q28.13-28.30 27.77-27.95L27.77-27.95L27.60-8.61Q27.60-5.63 27.95-3.16L27.95-3.16Q28.30-1.05 29.53-0.88L29.53-0.88Q29.71-0.70 31.46-0.70L31.46-0.70ZM39.02-1.41Q40.96-1.41 40.96-1.76L40.96-1.76L41.31-5.98Q41.48-6.68 41.48-9.32L41.48-9.32L41.48-14.94Q41.48-17.23 41.13-17.58L41.13-17.58Q39.55-17.75 36.74-17.75L36.74-17.75L32.87-17.23L32.70-15.64Q32.70-14.59 33.22-13.71L33.22-13.71Q33.75-13.36 35.16-13.71L35.16-13.71Q35.68-13.89 37.62-13.89L37.62-13.89Q37.79-13.54 37.79-11.43L37.79-11.43Q37.79-8.61 37.62-6.50L37.62-6.50L37.27-1.93Q37.27-1.41 39.02-1.41L39.02-1.41ZM51.68 1.05Q49.92 1.05 49.39 0.88L49.39 0.88Q48.52 0.53 47.99 0L47.99 0Q46.05-0.53 45.70-3.16L45.70-3.16Q45.35-6.33 45.35-10.55L45.35-10.55L45.53-16.17Q45.53-17.05 45.70-17.23L45.70-17.23Q46.05-17.75 46.41-17.93L46.41-17.93Q47.46-18.28 47.99-18.28L47.99-18.28Q50.27-18.28 50.98-17.58L50.98-17.58Q51.33-17.93 51.86-17.93L51.86-17.93L55.55-18.46Q58.71-18.46 60.29-18.11L60.29-18.11Q60.82-18.11 61.17-17.40L61.17-17.40L61.70-17.23Q62.58-17.23 62.58-16.17L62.58-16.17L62.75-13.71L62.75-9.14Q62.75-6.33 62.58-5.10L62.58-5.10L62.23-0.88Q62.23 0.53 59.24 0.53L59.24 0.53Q57.83 0.53 57.13 0.18L57.13 0.18Q56.78 0.53 56.25 0.53L56.25 0.53Q54.14 1.05 51.68 1.05L51.68 1.05ZM50.27-0.88Q52.38-0.88 54.84-1.41L54.84-1.41Q55.02-1.93 55.02-2.81L55.02-2.81Q55.02-4.39 54.32-5.10L54.32-5.10Q53.96-4.92 52.91-4.92L52.91-4.92Q52.73-4.75 51.50-4.75L51.50-4.75Q50.80-4.75 50.80-4.92L50.80-4.92Q50.27-5.80 50.27-9.84L50.27-9.84L50.27-11.60Q50.27-12.83 50.45-13.54L50.45-13.54L50.45-16.52Q50.27-17.23 47.99-17.23L47.99-17.23Q46.93-17.23 46.58-16.88L46.58-16.88L46.41-10.55Q46.41-5.80 46.76-3.34L46.76-3.34Q47.11-1.23 48.34-1.05L48.34-1.05Q48.52-0.88 50.27-0.88L50.27-0.88ZM55.20-5.63L55.37-8.26L55.55-11.43L54.32-11.25Q53.26-11.25 52.73-11.78L52.73-11.78L52.73-10.72L52.73-8.96L52.91-5.98L52.91-5.98L53.26-5.98Q53.44-5.98 53.88-6.15Q54.32-6.33 54.67-6.15L54.67-6.15L55.20-5.63ZM57.83-1.41Q59.77-1.41 59.77-1.76L59.77-1.76L60.12-5.98Q60.29-7.21 60.29-10.02L60.29-10.02L60.29-14.59Q60.29-16.88 59.94-17.23L59.94-17.23Q58.36-17.40 55.55-17.40L55.55-17.40L51.86-16.88L51.68-15.29Q51.68-14.24 52.21-13.36L52.21-13.36Q52.73-13.18 53.96-13.36L53.96-13.36Q54.49-13.54 56.43-13.54L56.43-13.54Q56.60-13.18 56.60-11.60L56.60-11.60Q56.60-9.67 56.43-8.26L56.43-8.26L56.07-1.93Q56.07-1.41 57.83-1.41L57.83-1.41ZM70.49 1.05Q68.73 1.05 68.20 0.88L68.20 0.88Q67.50 0.70 66.80 0L66.80 0Q64.86-0.53 64.51-3.16L64.51-3.16Q64.16-5.63 64.16-8.26L64.16-8.26L63.98-16.17Q63.98-16.88 64.16-17.23L64.16-17.23Q64.51-17.75 64.86-17.93L64.86-17.93Q65.92-18.28 66.80-18.28L66.80-18.28Q69.08-18.28 69.79-17.58L69.79-17.58L70.49-17.93Q73.13-18.63 76.64-18.63L76.64-18.63Q78.40-18.63 79.45-18.46L79.45-18.46Q80.51-18.98 80.86-17.58L80.86-17.58Q81.04-17.75 81.39-17.75L81.39-17.75Q82.09-17.75 82.35-16.61Q82.62-15.47 82.44-13.89L82.44-13.89L82.44-8.44L82.27-6.50L82.44-6.50Q82.97-6.33 83.14-5.80L83.14-5.80L83.85-5.63Q84.38-5.45 84.55-4.92L84.55-4.92L85.08-2.99L85.25-1.58Q85.25 0.18 83.85 0.18L83.85 0.18L81.39 0.35Q80.33 0.35 80.33-0.18L80.33-0.18L80.33-0.53L80.16-0.53L80.16-0.35Q80.16 0.18 79.63 0.18L79.63 0.18L79.10 0.18Q78.05 0.18 76.99-0.18L76.99-0.18Q76.64 0.18 76.11 0.18L76.11 0.18L73.30 0.70Q71.54 1.05 70.49 1.05L70.49 1.05ZM69.08-0.88Q69.96-0.88 71.72-1.23L71.72-1.23L74.71-1.76Q74.88-2.29 74.88-3.34L74.88-3.34Q74.88-4.92 74.18-5.63L74.18-5.63L72.42-5.10L70.31-4.75Q69.61-4.75 69.61-4.92L69.61-4.92Q69.08-5.80 69.08-8.09L69.08-8.09L69.08-11.07Q69.08-12.66 69.26-13.36L69.26-13.36L69.26-16.52Q69.08-17.23 66.80-17.23L66.80-17.23Q65.39-17.23 65.04-16.88L65.04-16.88L65.21-8.26Q65.21-5.80 65.57-3.34L65.57-3.34Q65.92-1.23 67.15-1.05L67.15-1.05Q67.32-0.88 69.08-0.88L69.08-0.88ZM71.54-5.98L71.72-5.98L72.25-6.15L73.65-6.50Q74.36-6.86 74.88-6.33L74.88-6.33L74.88-6.86L75.06-11.60Q74.53-11.43 72.95-11.43L72.95-11.43Q72.07-11.43 71.72-11.95L71.72-11.95L71.54-11.78L71.54-10.20L71.54-7.21L71.54-5.98ZM78.93-1.58L82.44-1.76Q82.97-1.76 82.62-3.69L82.62-3.69Q82.27-5.45 82.09-5.63L82.09-5.63L79.98-5.45L79.80-6.33Q79.98-6.86 79.98-9.32L79.98-9.32L79.98-14.77L79.98-16.00Q79.98-17.40 79.80-17.58L79.80-17.58Q74.36-17.93 70.66-16.88L70.66-16.88L70.66-15.82Q70.66-14.41 71.19-13.36L71.19-13.36Q73.30-13.36 73.83-13.54L73.83-13.54Q74.36-13.71 75.94-13.71L75.94-13.71Q76.11-13.36 76.11-11.43L76.11-11.43Q76.11-8.79 75.94-6.86L75.94-6.86L75.94-2.29Q75.94-1.76 77.70-1.76L77.70-1.76L78.75-1.76Q78.75-1.58 78.93-1.58L78.93-1.58ZM95.27 0.53L92.99 0Q92.29 0.70 91.93-0.70L91.93-0.70L91.58-0.88L91.23-0.70Q90.18-0.70 90.18-4.39L90.18-4.39Q89.82-7.56 90.18-12.66L90.18-12.66L89.65-12.66Q88.77-12.66 88.24-13.54L88.24-13.54Q87.19-13.54 87.01-14.41L87.01-14.41Q86.66-15.82 86.66-16.17L86.66-16.17Q86.66-16.88 86.84-17.23L86.84-17.23L87.01-18.28Q87.36-19.16 88.24-19.16L88.24-19.16L90.18-19.34L90.70-27.42Q90.70-28.83 93.69-28.83L93.69-28.83Q95.98-28.83 96.33-27.77L96.33-27.77Q97.91-27.60 97.91-26.37L97.91-26.37L97.56-19.51L99.14-19.51Q99.84-19.51 100.37-18.81L100.37-18.81L100.37-18.63L100.55-18.63Q101.25-18.63 101.78-17.93L101.78-17.93Q102.48-16.52 102.13-14.06L102.13-14.06Q102.13-13.01 101.07-13.01L101.07-13.01L97.56-12.83L97.38-6.68L97.38-6.33L100.02-6.33Q100.72-6.33 101.25-5.63L101.25-5.63L101.25-5.45L101.43-5.45Q102.13-5.45 102.66-4.75L102.66-4.75Q103.18-3.69 102.83-0.88L102.83-0.88Q102.83-0.18 101.95 0.18L101.95 0.18Q99.32 0.70 95.27 0.53L95.27 0.53ZM91.58-1.58Q93.34-1.41 96.33-1.41L96.33-1.41Q99.32-1.41 100.37-1.76L100.37-1.76L100.55-3.52Q100.55-4.57 100.20-5.27L100.20-5.27L97.38-5.27L96.86-5.27Q95.80-5.27 95.10-5.45L95.10-5.45L94.92-8.26L95.10-14.77L99.67-14.94L99.84-16.35Q99.84-17.40 99.32-18.46L99.32-18.46L95.10-18.28L95.45-27.25Q95.45-27.77 93.69-27.77L93.69-27.77Q91.76-27.77 91.76-27.42L91.76-27.42L91.23-18.28L88.07-18.11L87.89-17.05Q87.71-16.70 87.71-16.17L87.71-16.17Q87.71-15.64 88.07-14.59L88.07-14.59L91.23-14.77L91.05-8.96L91.23-4.39Q91.23-1.93 91.58-1.58L91.58-1.58Z" transform="translate(-0.791015625, 29.53125)"/>
            </g>
            <g transform="translate(0,0)">
                <path d="M6.86 0.18Q6.15 0.35 5.45 0.18L5.45 0.18L3.87-0.18Q3.16-0.35 2.46-1.05L2.46-1.05Q1.23-1.58 0.88-2.46L0.88-2.46Q0.70-2.99 0.88-3.69L0.88-3.69L9.32-28.48Q9.67-29.36 10.37-29.36L10.37-29.36Q10.90-29.53 12.13-29.53L12.13-29.53Q13.54-29.53 14.41-29.36L14.41-29.36Q15.12-29.36 15.47-28.48L15.47-28.48L15.82-28.48Q16.52-28.48 16.88-27.60L16.88-27.60L24.96-3.52L25.14-2.64Q25.14-1.58 23.73-0.70L23.73-0.70Q22.68 0 21.27 0L21.27 0L20.39 0Q19.69 0 19.34-0.88L19.34-0.88L18.98-0.88Q18.28-0.88 17.93-1.76L17.93-1.76L15.12-10.72L11.07-10.37L8.09-0.70Q7.91-0.18 7.03 0.18L7.03 0.18L6.86 0.18ZM4.75-1.58L5.63-1.76L8.96-12.30L14.41-12.66L14.41-13.54Q14.41-15.29 13.54-16.35L13.54-16.35L10.37-16.00L12.30-23.55L18.98-1.93L19.86-1.93Q20.92-1.93 21.80-2.46L21.80-2.46Q22.68-2.99 22.68-3.52L22.68-3.52L14.41-28.30Q13.54-28.48 12.13-28.48L12.13-28.48Q10.90-28.48 10.37-28.30L10.37-28.30L1.76-2.99Q1.93-2.46 2.81-2.11L2.81-2.11L4.75-1.58ZM32.87 1.23Q31.11 1.23 30.59 1.05L30.59 1.05Q29.71 0.70 29.18 0.18L29.18 0.18Q27.25-0.35 26.89-2.99L26.89-2.99Q26.54-5.45 26.54-8.61L26.54-8.61L26.72-27.25Q26.72-28.13 26.89-28.30L26.89-28.30Q27.25-28.83 27.60-29.00L27.60-29.00Q28.65-29.36 29.18-29.36L29.18-29.36Q31.82-29.36 32.52-28.30L32.52-28.30Q33.57-27.95 33.93-27.42L33.93-27.42Q34.10-27.07 34.10-26.19L34.10-26.19L34.10-18.46L36.74-18.81Q39.90-18.81 41.48-18.46L41.48-18.46Q42.01-18.46 42.36-17.75L42.36-17.75L42.89-17.58Q43.77-17.58 43.77-16.52L43.77-16.52L43.95-14.06L43.95-8.44Q43.95-5.80 43.77-4.92L43.77-4.92L43.42-0.88Q43.42 0.53 40.43 0.53L40.43 0.53Q39.02 0.53 38.32 0.18L38.32 0.18L37.62 0.53Q35.68 1.23 32.87 1.23L32.87 1.23ZM36.56-5.45L36.56-6.50L36.74-11.78L35.51-11.60Q34.45-11.60 33.93-12.13L33.93-12.13L33.93-7.03L33.93-5.80Q34.28-5.80 34.45-5.98L34.45-5.98L34.98-5.98Q35.86-6.33 36.39-5.63L36.39-5.63L36.56-5.45ZM31.46-0.70Q34.10-0.70 36.04-1.41L36.04-1.41Q36.21-1.93 36.21-2.81L36.21-2.81Q36.21-4.39 35.51-5.10L35.51-5.10L34.10-4.75Q33.93-4.57 32.70-4.57L32.70-4.57Q31.99-4.57 31.99-4.75L31.99-4.75Q31.46-5.63 31.46-7.91L31.46-7.91L31.46-12.66Q31.46-16.52 31.64-19.16L31.64-19.16L31.64-27.60Q31.46-28.30 29.18-28.30L29.18-28.30Q28.13-28.30 27.77-27.95L27.77-27.95L27.60-8.61Q27.60-5.63 27.95-3.16L27.95-3.16Q28.30-1.05 29.53-0.88L29.53-0.88Q29.71-0.70 31.46-0.70L31.46-0.70ZM39.02-1.41Q40.96-1.41 40.96-1.76L40.96-1.76L41.31-5.98Q41.48-6.68 41.48-9.32L41.48-9.32L41.48-14.94Q41.48-17.23 41.13-17.58L41.13-17.58Q39.55-17.75 36.74-17.75L36.74-17.75L32.87-17.23L32.70-15.64Q32.70-14.59 33.22-13.71L33.22-13.71Q33.75-13.36 35.16-13.71L35.16-13.71Q35.68-13.89 37.62-13.89L37.62-13.89Q37.79-13.54 37.79-11.43L37.79-11.43Q37.79-8.61 37.62-6.50L37.62-6.50L37.27-1.93Q37.27-1.41 39.02-1.41L39.02-1.41ZM51.68 1.05Q49.92 1.05 49.39 0.88L49.39 0.88Q48.52 0.53 47.99 0L47.99 0Q46.05-0.53 45.70-3.16L45.70-3.16Q45.35-6.33 45.35-10.55L45.35-10.55L45.53-16.17Q45.53-17.05 45.70-17.23L45.70-17.23Q46.05-17.75 46.41-17.93L46.41-17.93Q47.46-18.28 47.99-18.28L47.99-18.28Q50.27-18.28 50.98-17.58L50.98-17.58Q51.33-17.93 51.86-17.93L51.86-17.93L55.55-18.46Q58.71-18.46 60.29-18.11L60.29-18.11Q60.82-18.11 61.17-17.40L61.17-17.40L61.70-17.23Q62.58-17.23 62.58-16.17L62.58-16.17L62.75-13.71L62.75-9.14Q62.75-6.33 62.58-5.10L62.58-5.10L62.23-0.88Q62.23 0.53 59.24 0.53L59.24 0.53Q57.83 0.53 57.13 0.18L57.13 0.18Q56.78 0.53 56.25 0.53L56.25 0.53Q54.14 1.05 51.68 1.05L51.68 1.05ZM50.27-0.88Q52.38-0.88 54.84-1.41L54.84-1.41Q55.02-1.93 55.02-2.81L55.02-2.81Q55.02-4.39 54.32-5.10L54.32-5.10Q53.96-4.92 52.91-4.92L52.91-4.92Q52.73-4.75 51.50-4.75L51.50-4.75Q50.80-4.75 50.80-4.92L50.80-4.92Q50.27-5.80 50.27-9.84L50.27-9.84L50.27-11.60Q50.27-12.83 50.45-13.54L50.45-13.54L50.45-16.52Q50.27-17.23 47.99-17.23L47.99-17.23Q46.93-17.23 46.58-16.88L46.58-16.88L46.41-10.55Q46.41-5.80 46.76-3.34L46.76-3.34Q47.11-1.23 48.34-1.05L48.34-1.05Q48.52-0.88 50.27-0.88L50.27-0.88ZM55.20-5.63L55.37-8.26L55.55-11.43L54.32-11.25Q53.26-11.25 52.73-11.78L52.73-11.78L52.73-10.72L52.73-8.96L52.91-5.98L52.91-5.98L53.26-5.98Q53.44-5.98 53.88-6.15Q54.32-6.33 54.67-6.15L54.67-6.15L55.20-5.63ZM57.83-1.41Q59.77-1.41 59.77-1.76L59.77-1.76L60.12-5.98Q60.29-7.21 60.29-10.02L60.29-10.02L60.29-14.59Q60.29-16.88 59.94-17.23L59.94-17.23Q58.36-17.40 55.55-17.40L55.55-17.40L51.86-16.88L51.68-15.29Q51.68-14.24 52.21-13.36L52.21-13.36Q52.73-13.18 53.96-13.36L53.96-13.36Q54.49-13.54 56.43-13.54L56.43-13.54Q56.60-13.18 56.60-11.60L56.60-11.60Q56.60-9.67 56.43-8.26L56.43-8.26L56.07-1.93Q56.07-1.41 57.83-1.41L57.83-1.41ZM70.49 1.05Q68.73 1.05 68.20 0.88L68.20 0.88Q67.50 0.70 66.80 0L66.80 0Q64.86-0.53 64.51-3.16L64.51-3.16Q64.16-5.63 64.16-8.26L64.16-8.26L63.98-16.17Q63.98-16.88 64.16-17.23L64.16-17.23Q64.51-17.75 64.86-17.93L64.86-17.93Q65.92-18.28 66.80-18.28L66.80-18.28Q69.08-18.28 69.79-17.58L69.79-17.58L70.49-17.93Q73.13-18.63 76.64-18.63L76.64-18.63Q78.40-18.63 79.45-18.46L79.45-18.46Q80.51-18.98 80.86-17.58L80.86-17.58Q81.04-17.75 81.39-17.75L81.39-17.75Q82.09-17.75 82.35-16.61Q82.62-15.47 82.44-13.89L82.44-13.89L82.44-8.44L82.27-6.50L82.44-6.50Q82.97-6.33 83.14-5.80L83.14-5.80L83.85-5.63Q84.38-5.45 84.55-4.92L84.55-4.92L85.08-2.99L85.25-1.58Q85.25 0.18 83.85 0.18L83.85 0.18L81.39 0.35Q80.33 0.35 80.33-0.18L80.33-0.18L80.33-0.53L80.16-0.53L80.16-0.35Q80.16 0.18 79.63 0.18L79.63 0.18L79.10 0.18Q78.05 0.18 76.99-0.18L76.99-0.18Q76.64 0.18 76.11 0.18L76.11 0.18L73.30 0.70Q71.54 1.05 70.49 1.05L70.49 1.05ZM69.08-0.88Q69.96-0.88 71.72-1.23L71.72-1.23L74.71-1.76Q74.88-2.29 74.88-3.34L74.88-3.34Q74.88-4.92 74.18-5.63L74.18-5.63L72.42-5.10L70.31-4.75Q69.61-4.75 69.61-4.92L69.61-4.92Q69.08-5.80 69.08-8.09L69.08-8.09L69.08-11.07Q69.08-12.66 69.26-13.36L69.26-13.36L69.26-16.52Q69.08-17.23 66.80-17.23L66.80-17.23Q65.39-17.23 65.04-16.88L65.04-16.88L65.21-8.26Q65.21-5.80 65.57-3.34L65.57-3.34Q65.92-1.23 67.15-1.05L67.15-1.05Q67.32-0.88 69.08-0.88L69.08-0.88ZM71.54-5.98L71.72-5.98L72.25-6.15L73.65-6.50Q74.36-6.86 74.88-6.33L74.88-6.33L74.88-6.86L75.06-11.60Q74.53-11.43 72.95-11.43L72.95-11.43Q72.07-11.43 71.72-11.95L71.72-11.95L71.54-11.78L71.54-10.20L71.54-7.21L71.54-5.98ZM78.93-1.58L82.44-1.76Q82.97-1.76 82.62-3.69L82.62-3.69Q82.27-5.45 82.09-5.63L82.09-5.63L79.98-5.45L79.80-6.33Q79.98-6.86 79.98-9.32L79.98-9.32L79.98-14.77L79.98-16.00Q79.98-17.40 79.80-17.58L79.80-17.58Q74.36-17.93 70.66-16.88L70.66-16.88L70.66-15.82Q70.66-14.41 71.19-13.36L71.19-13.36Q73.30-13.36 73.83-13.54L73.83-13.54Q74.36-13.71 75.94-13.71L75.94-13.71Q76.11-13.36 76.11-11.43L76.11-11.43Q76.11-8.79 75.94-6.86L75.94-6.86L75.94-2.29Q75.94-1.76 77.70-1.76L77.70-1.76L78.75-1.76Q78.75-1.58 78.93-1.58L78.93-1.58ZM95.27 0.53L92.99 0Q92.29 0.70 91.93-0.70L91.93-0.70L91.58-0.88L91.23-0.70Q90.18-0.70 90.18-4.39L90.18-4.39Q89.82-7.56 90.18-12.66L90.18-12.66L89.65-12.66Q88.77-12.66 88.24-13.54L88.24-13.54Q87.19-13.54 87.01-14.41L87.01-14.41Q86.66-15.82 86.66-16.17L86.66-16.17Q86.66-16.88 86.84-17.23L86.84-17.23L87.01-18.28Q87.36-19.16 88.24-19.16L88.24-19.16L90.18-19.34L90.70-27.42Q90.70-28.83 93.69-28.83L93.69-28.83Q95.98-28.83 96.33-27.77L96.33-27.77Q97.91-27.60 97.91-26.37L97.91-26.37L97.56-19.51L99.14-19.51Q99.84-19.51 100.37-18.81L100.37-18.81L100.37-18.63L100.55-18.63Q101.25-18.63 101.78-17.93L101.78-17.93Q102.48-16.52 102.13-14.06L102.13-14.06Q102.13-13.01 101.07-13.01L101.07-13.01L97.56-12.83L97.38-6.68L97.38-6.33L100.02-6.33Q100.72-6.33 101.25-5.63L101.25-5.63L101.25-5.45L101.43-5.45Q102.13-5.45 102.66-4.75L102.66-4.75Q103.18-3.69 102.83-0.88L102.83-0.88Q102.83-0.18 101.95 0.18L101.95 0.18Q99.32 0.70 95.27 0.53L95.27 0.53ZM91.58-1.58Q93.34-1.41 96.33-1.41L96.33-1.41Q99.32-1.41 100.37-1.76L100.37-1.76L100.55-3.52Q100.55-4.57 100.20-5.27L100.20-5.27L97.38-5.27L96.86-5.27Q95.80-5.27 95.10-5.45L95.10-5.45L94.92-8.26L95.10-14.77L99.67-14.94L99.84-16.35Q99.84-17.40 99.32-18.46L99.32-18.46L95.10-18.28L95.45-27.25Q95.45-27.77 93.69-27.77L93.69-27.77Q91.76-27.77 91.76-27.42L91.76-27.42L91.23-18.28L88.07-18.11L87.89-17.05Q87.71-16.70 87.71-16.17L87.71-16.17Q87.71-15.64 88.07-14.59L88.07-14.59L91.23-14.77L91.05-8.96L91.23-4.39Q91.23-1.93 91.58-1.58L91.58-1.58Z" transform="translate(-0.791015625, 29.53125)"/>
            </g>
        </g>
    </g>
</svg>
